# Blender 4.0.2
# www.blender.org
mtllib sol.mtl
o Cube
v -2.000000 -0.500000 2.000000
v -2.000000 0.000000 2.000000
v -2.000000 -0.500000 -2.000000
v -2.000000 0.000000 -2.000000
v 2.000000 -0.500000 2.000000
v 2.000000 0.000000 2.000000
v 2.000000 -0.500000 -2.000000
v 2.000000 0.000000 -2.000000
vn -1.0000 -0.0000 -0.0000
vn -0.0000 -0.0000 -1.0000
vn 1.0000 -0.0000 -0.0000
vn -0.0000 -0.0000 1.0000
vn -0.0000 -1.0000 -0.0000
vn -0.0000 1.0000 -0.0000
vt 0.107033 0.110134
vt 0.107033 0.011643
vt 0.894957 0.011643
vt 0.894957 0.110134
vt 0.993447 0.110134
vt 0.993447 0.898057
vt 0.894957 0.898057
vt 0.894957 0.996547
vt 0.107033 0.996547
vt 0.107033 0.898057
vt 0.008543 0.898057
vt 0.008543 0.110134
vt 1.002127 0.000973
vt 1.002127 0.999590
vt 0.003511 0.999590
vt 0.003511 0.000974
s 0
usemtl Material
f 8/13/6 4/14/6 2/15/6 6/16/6
usemtl Material.002
f 1/1/1 2/2/1 4/3/1 3/4/1
f 3/4/2 4/5/2 8/6/2 7/7/2
f 7/7/3 8/8/3 6/9/3 5/10/3
f 5/10/4 6/11/4 2/12/4 1/1/4
f 3/4/5 7/7/5 5/10/5 1/1/5
