# Blender 4.0.2
# www.blender.org
mtllib wall.mtl
o Cube.045
v -1.999999 -0.000000 -1.999999
v -1.999999 4.000000 -1.999999
v -2.000000 3.733692 -1.750000
v 2.000000 3.733692 -1.750001
v 2.000000 -0.000000 -2.000000
v 2.000000 4.000000 -2.000001
v 2.000000 3.833050 -1.632623
v -2.000000 3.833050 -1.632622
v 2.000000 4.000000 -1.632623
v -2.000000 4.000000 -1.632622
v -2.000000 0.345310 -1.750000
v 2.000000 0.345310 -1.750000
v 2.000000 0.279235 -1.633186
v 2.000000 -0.000000 -1.633186
v -2.000000 -0.000000 -1.633186
v -2.000000 0.279235 -1.633186
vn -0.0000 -0.0000 1.0000
vn -0.0000 -0.7633 0.6461
vn -0.0000 0.8704 0.4923
vn -0.0000 -0.0000 -1.0000
vn 1.0000 -0.0000 -0.0000
vn -0.0000 1.0000 -0.0000
vn -1.0000 -0.0000 -0.0000
vn -0.0000 -1.0000 -0.0000
vt 0.016972 0.954936
vt 0.979356 0.954936
vt 0.979356 0.995104
vt 0.016972 0.995104
vt 0.016972 0.917936
vt 0.979356 0.917936
vt 0.979356 0.003233
vt 0.979356 0.070416
vt 0.016972 0.070416
vt 0.016972 0.003233
vt 0.979356 0.102705
vt 0.016972 0.102705
vt 0.142668 0.137997
vt 0.867591 0.137997
vt 0.867591 0.862920
vt 0.142668 0.862920
vt 0.190931 0.047381
vt 0.805010 0.047381
vt 0.030780 0.862920
vt 0.030780 0.137997
vt 0.805010 0.953535
vt 0.190931 0.953535
vt 0.867591 0.026211
vt 0.816985 0.026211
vt 0.867591 0.974705
vt 0.816985 0.974705
vt 0.142668 0.974808
vt 0.172924 0.974808
vt 0.979377 0.137997
vt 0.979376 0.862920
vt 0.172924 0.026109
vt 0.142668 0.026109
s 0
usemtl Material.153
f 8/1/1 7/2/1 9/3/1 10/4/1
f 3/5/2 4/6/2 7/2/2 8/1/2
f 14/7/1 13/8/1 16/9/1 15/10/1
f 12/11/3 11/12/3 16/9/3 13/8/3
f 12/11/1 4/6/1 3/5/1 11/12/1
usemtl Material.154
f 6/13/4 5/14/4 1/15/4 2/16/4
f 4/17/5 12/18/5 5/14/5 6/13/5
f 2/16/6 10/19/6 9/20/6 6/16/6
f 2/16/7 1/15/7 11/21/7 3/22/7
f 14/23/5 5/14/5 12/18/5 13/24/5
f 15/25/7 16/26/7 11/21/7 1/15/7
f 10/27/7 2/16/7 3/22/7 8/28/7
f 5/14/8 14/29/8 15/30/8 1/15/8
f 7/31/5 4/17/5 6/13/5 9/32/5
