# Blender 4.0.2
# www.blender.org
mtllib Guillotine_Bois.mtl
o Guillotine
v -0.162341 2.786433 1.972684
v -0.162341 3.342582 1.972684
v -0.080206 3.342582 1.403317
v -0.162341 3.342582 1.551893
v -0.090034 3.342582 0.969994
v -0.135321 3.342582 0.388095
v -0.089412 -0.657418 1.972684
v -0.162341 2.786433 1.551893
v -0.089412 2.786433 1.972684
v -0.162341 -0.657418 1.551893
v -0.162341 -0.657418 1.972684
v -0.089412 3.342582 1.551893
v -0.080206 2.761830 1.362311
v -0.090034 3.087142 1.046538
v -0.309482 3.342582 0.388095
v -0.135321 3.242963 0.388095
v -0.309482 3.242963 0.388095
v -0.089412 -0.657418 1.551893
v -0.164333 3.087142 1.046538
v -0.164333 3.342582 0.969994
v -0.089412 3.342582 1.972684
v -0.132834 2.761830 1.362311
v -0.132834 3.342582 1.403317
v -0.089412 2.786433 1.551893
v -0.323617 3.342582 0.101697
v -0.139730 3.342582 0.101697
v -0.139730 3.242963 0.101697
v -0.323617 3.242963 0.101697
v 0.049661 2.786433 1.972684
v 0.049661 3.342582 1.972684
v -0.032474 3.342582 1.403317
v 0.049661 3.342582 1.551893
v -0.022646 3.342582 0.969994
v 0.022640 3.342582 0.388095
v -0.023268 -0.657418 1.972684
v 0.049661 2.786433 1.551893
v -0.023268 2.786433 1.972684
v 0.049661 -0.657418 1.551893
v 0.049661 -0.657418 1.972684
v -0.023268 3.342582 1.551893
v -0.032474 2.761830 1.362311
v -0.022646 3.087142 1.046538
v 0.196802 3.342582 0.388095
v 0.022640 3.242963 0.388095
v 0.196802 3.242963 0.388095
v -0.023268 -0.657418 1.551893
v 0.051653 3.087142 1.046538
v 0.051653 3.342582 0.969994
v -0.023268 3.342582 1.972684
v 0.020153 2.761830 1.362311
v 0.020153 3.342582 1.403317
v -0.023268 2.786433 1.551893
v 0.210936 3.342582 0.101697
v 0.027050 3.342582 0.101697
v 0.027050 3.242963 0.101697
v 0.210936 3.242963 0.101697
v -0.162341 2.786433 -2.027825
v -0.162341 3.342582 -2.027825
v -0.080206 3.342582 -1.458458
v -0.162341 3.342582 -1.607034
v -0.090034 3.342582 -1.025135
v -0.135321 3.342582 -0.443236
v -0.089412 -0.657418 -2.027825
v -0.162341 2.786433 -1.607034
v -0.089412 2.786433 -2.027825
v -0.162341 -0.657418 -1.607034
v -0.162341 -0.657418 -2.027825
v -0.089412 3.342582 -1.607034
v -0.080206 2.761830 -1.417452
v -0.090034 3.087142 -1.101679
v -0.309482 3.342582 -0.443236
v -0.135321 3.242963 -0.443236
v -0.309482 3.242963 -0.443236
v -0.089412 -0.657418 -1.607034
v -0.164333 3.087142 -1.101679
v -0.164333 3.342582 -1.025135
v -0.089412 3.342582 -2.027825
v -0.132834 2.761830 -1.417452
v -0.132834 3.342582 -1.458458
v -0.089412 2.786433 -1.607034
v -0.323617 3.342582 -0.156839
v -0.139730 3.342582 -0.156839
v -0.139730 3.242963 -0.156839
v -0.323617 3.242963 -0.156839
v 0.049661 2.786433 -2.027825
v 0.049661 3.342582 -2.027825
v -0.032474 3.342582 -1.458458
v 0.049661 3.342582 -1.607034
v -0.022646 3.342582 -1.025135
v 0.022640 3.342582 -0.443236
v -0.023268 -0.657418 -2.027825
v 0.049661 2.786433 -1.607034
v -0.023268 2.786433 -2.027825
v 0.049661 -0.657418 -1.607034
v 0.049661 -0.657418 -2.027825
v -0.023268 3.342582 -1.607034
v -0.032474 2.761830 -1.417452
v -0.022646 3.087142 -1.101679
v 0.196802 3.342582 -0.443236
v 0.022640 3.242963 -0.443236
v 0.196802 3.242963 -0.443236
v -0.023268 -0.657418 -1.607034
v 0.051653 3.087142 -1.101679
v 0.051653 3.342582 -1.025135
v -0.023268 3.342582 -2.027825
v 0.020153 2.761830 -1.417452
v 0.020153 3.342582 -1.458458
v -0.023268 2.786433 -1.607034
v 0.210936 3.342582 -0.156839
v 0.027050 3.342582 -0.156839
v 0.027050 3.242963 -0.156839
v 0.210936 3.242963 -0.156839
vn -0.9988 -0.0000 0.0493
vn 1.0000 -0.0000 -0.0000
vn -0.0000 -0.0000 1.0000
vn -0.0000 -0.6965 -0.7175
vn -0.0000 1.0000 -0.0000
vn -0.0000 -1.0000 -0.0000
vn -1.0000 -0.0000 -0.0000
vn -0.9710 0.0504 0.2336
vn -0.0000 -0.0000 -1.0000
vn -0.9963 0.0036 0.0854
vn -0.0000 -0.9917 0.1287
vn -0.9850 0.0062 -0.1724
vn -0.0000 -0.9731 -0.2303
vn 0.9988 -0.0000 0.0493
vn 0.9710 0.0504 0.2336
vn 0.9963 0.0036 0.0854
vn 0.9850 0.0062 -0.1724
vn -0.9988 -0.0000 -0.0493
vn -0.0000 -0.6965 0.7175
vn -0.9710 0.0504 -0.2336
vn -0.9963 0.0036 -0.0854
vn -0.0000 -0.9917 -0.1287
vn -0.9850 0.0062 0.1724
vn -0.0000 -0.9731 0.2303
vn 0.9988 -0.0000 -0.0493
vn 0.9710 0.0504 -0.2336
vn 0.9963 0.0036 -0.0854
vn 0.9850 0.0062 0.1724
vt 0.375000 0.099024
vt 0.625000 0.099024
vt 0.625000 0.116922
vt 0.375000 0.116922
vt 0.789000 0.633078
vt 0.211000 0.633078
vt 0.375000 0.914000
vt 0.625000 0.914000
vt 0.625000 1.000000
vt 0.375000 1.000000
vt 0.211000 0.687340
vt 0.211000 0.714419
vt 0.789000 0.723704
vt 0.875000 0.723704
vt 0.875000 0.750000
vt 0.789000 0.750000
vt 0.125000 0.633078
vt 0.789000 0.714419
vt 0.875000 0.714419
vt 0.375000 0.000000
vt 0.625000 0.000000
vt 0.625000 0.026296
vt 0.375000 0.026296
vt 0.875000 0.633078
vt 0.375000 0.062660
vt 0.625000 0.062660
vt 0.875000 0.650976
vt 0.789000 0.650976
vt 0.211000 0.723704
vt 0.211000 0.750000
vt 0.211000 0.723704
vt 0.375000 0.035581
vt 0.625000 0.035581
vt 0.875000 0.687340
vt 0.789000 0.687340
vt 0.211000 0.650976
vt 0.125000 0.687340
vt 0.125000 0.714419
vt 0.125000 0.650976
vt 0.125000 0.723704
vt 0.125000 0.750000
s 0
usemtl Material.001
f 17/1/1 15/2/1 25/3/1 28/4/1
f 82/5/2 26/5/2 27/6/2 83/6/2
f 9/7/3 21/8/3 2/9/3 1/10/3
f 42/11/4 41/12/4 13/12/4 14/11/4
f 12/13/5 4/14/5 2/15/5 21/16/5
f 55/6/6 111/6/6 112/17/6 56/17/6
f 3/18/5 23/19/5 4/14/5 12/13/5
f 1/20/7 2/21/7 4/22/7 8/23/7
f 26/5/5 82/5/5 81/24/5 25/24/5
f 9/7/3 1/10/3 11/10/3 7/7/3
f 84/4/7 28/4/7 25/3/7 81/3/7
f 1/20/7 8/23/7 10/23/7 11/20/7
f 19/25/8 20/26/8 15/2/8 17/1/8
f 26/5/5 25/24/5 15/27/5 6/28/5
f 46/29/6 35/30/6 7/30/6 18/29/6
f 52/31/9 46/29/9 18/29/9 24/31/9
f 22/32/10 23/33/10 20/26/10 19/25/10
f 6/28/5 15/27/5 20/34/5 5/35/5
f 41/12/11 52/31/11 24/31/11 13/12/11
f 12/13/5 40/13/5 31/18/5 3/18/5
f 8/23/12 4/22/12 23/33/12 22/32/12
f 5/35/5 20/34/5 23/19/5 3/18/5
f 7/7/3 35/7/3 37/7/3 9/7/3
f 55/6/6 44/36/6 16/36/6 27/6/6
f 3/18/5 31/18/5 33/35/5 5/35/5
f 44/36/13 42/11/13 14/11/13 16/36/13
f 5/35/5 33/35/5 34/28/5 6/28/5
f 19/37/4 14/11/4 13/12/4 22/38/4
f 6/28/5 34/28/5 54/5/5 26/5/5
f 17/39/13 16/36/13 14/11/13 19/37/13
f 28/17/6 27/6/6 16/36/6 17/39/6
f 22/38/11 13/12/11 24/31/11 8/40/11
f 21/16/5 49/16/5 40/13/5 12/13/5
f 8/40/9 24/31/9 18/29/9 10/40/9
f 9/7/3 37/7/3 49/8/3 21/8/3
f 10/40/6 18/29/6 7/30/6 11/41/6
f 110/5/3 82/5/3 83/6/3 111/6/3
f 45/1/14 56/4/14 53/3/14 43/2/14
f 110/5/7 111/6/7 55/6/7 54/5/7
f 37/7/3 29/10/3 30/9/3 49/8/3
f 40/13/5 49/16/5 30/15/5 32/14/5
f 31/18/5 40/13/5 32/14/5 51/19/5
f 29/20/2 36/23/2 32/22/2 30/21/2
f 53/24/5 109/24/5 110/5/5 54/5/5
f 37/7/3 35/7/3 39/10/3 29/10/3
f 112/4/2 109/3/2 53/3/2 56/4/2
f 29/20/2 39/20/2 38/23/2 36/23/2
f 47/25/15 45/1/15 43/2/15 48/26/15
f 54/5/5 34/28/5 43/27/5 53/24/5
f 50/32/16 47/25/16 48/26/16 51/33/16
f 34/28/5 33/35/5 48/34/5 43/27/5
f 36/23/17 50/32/17 51/33/17 32/22/17
f 33/35/5 31/18/5 51/19/5 48/34/5
f 47/37/4 50/38/4 41/12/4 42/11/4
f 45/39/13 47/37/13 42/11/13 44/36/13
f 56/17/6 45/39/6 44/36/6 55/6/6
f 50/38/11 36/40/11 52/31/11 41/12/11
f 36/40/9 38/40/9 46/29/9 52/31/9
f 38/40/6 39/41/6 35/30/6 46/29/6
f 73/1/18 84/4/18 81/3/18 71/2/18
f 65/7/9 57/10/9 58/9/9 77/8/9
f 98/11/19 70/11/19 69/12/19 97/12/19
f 68/13/5 77/16/5 58/15/5 60/14/5
f 59/18/5 68/13/5 60/14/5 79/19/5
f 57/20/7 64/23/7 60/22/7 58/21/7
f 65/7/9 63/7/9 67/10/9 57/10/9
f 57/20/7 67/20/7 66/23/7 64/23/7
f 75/25/20 73/1/20 71/2/20 76/26/20
f 82/5/5 62/28/5 71/27/5 81/24/5
f 102/29/6 74/29/6 63/30/6 91/30/6
f 108/31/3 80/31/3 74/29/3 102/29/3
f 78/32/21 75/25/21 76/26/21 79/33/21
f 62/28/5 61/35/5 76/34/5 71/27/5
f 97/12/22 69/12/22 80/31/22 108/31/22
f 59/18/5 87/18/5 96/13/5 68/13/5
f 64/23/23 78/32/23 79/33/23 60/22/23
f 61/35/5 59/18/5 79/19/5 76/34/5
f 65/7/9 93/7/9 91/7/9 63/7/9
f 111/6/6 83/6/6 72/36/6 100/36/6
f 61/35/5 89/35/5 87/18/5 59/18/5
f 100/36/24 72/36/24 70/11/24 98/11/24
f 62/28/5 90/28/5 89/35/5 61/35/5
f 75/37/19 78/38/19 69/12/19 70/11/19
f 82/5/5 110/5/5 90/28/5 62/28/5
f 73/39/24 75/37/24 70/11/24 72/36/24
f 84/17/6 73/39/6 72/36/6 83/6/6
f 78/38/22 64/40/22 80/31/22 69/12/22
f 68/13/5 96/13/5 105/16/5 77/16/5
f 64/40/3 66/40/3 74/29/3 80/31/3
f 77/8/9 105/8/9 93/7/9 65/7/9
f 66/40/6 67/41/6 63/30/6 74/29/6
f 28/17/6 84/17/6 83/6/6 27/6/6
f 101/1/25 99/2/25 109/3/25 112/4/25
f 93/7/9 105/8/9 86/9/9 85/10/9
f 96/13/5 88/14/5 86/15/5 105/16/5
f 87/18/5 107/19/5 88/14/5 96/13/5
f 85/20/2 86/21/2 88/22/2 92/23/2
f 93/7/9 85/10/9 95/10/9 91/7/9
f 85/20/2 92/23/2 94/23/2 95/20/2
f 103/25/26 104/26/26 99/2/26 101/1/26
f 110/5/5 109/24/5 99/27/5 90/28/5
f 106/32/27 107/33/27 104/26/27 103/25/27
f 90/28/5 99/27/5 104/34/5 89/35/5
f 92/23/28 88/22/28 107/33/28 106/32/28
f 89/35/5 104/34/5 107/19/5 87/18/5
f 103/37/19 98/11/19 97/12/19 106/38/19
f 101/39/24 100/36/24 98/11/24 103/37/24
f 112/17/6 111/6/6 100/36/6 101/39/6
f 106/38/22 97/12/22 108/31/22 92/40/22
f 92/40/3 108/31/3 102/29/3 94/40/3
f 94/40/6 102/29/6 91/30/6 95/41/6
f 54/5/9 55/6/9 27/6/9 26/5/9
