# Blender 4.0.2
# www.blender.org
mtllib pillar_quarter.mtl
o Cube.002
v -1.500000 0.000000 -1.597824
v -1.597824 0.000000 -1.500000
v -1.597824 4.000000 -1.500000
v -1.500000 4.000000 -1.597824
v -1.597824 0.483353 -1.500000
v -1.500000 0.483353 -1.597824
v -1.500000 3.619550 -1.597824
v -1.597824 3.619550 -1.500000
v -1.703676 3.443309 -1.631600
v -1.631600 3.443309 -1.703676
v -1.703676 0.606428 -1.631600
v -1.631600 0.606428 -1.703676
v -1.500000 0.000000 -2.000000
v -1.500000 4.000000 -2.000000
v -1.500000 0.483353 -2.000000
v -1.500000 3.619550 -2.000000
v -1.631600 3.443309 -2.000000
v -1.631600 0.606428 -2.000000
v -2.000000 0.000000 -1.500000
v -2.000000 4.000000 -1.500000
v -2.000000 0.483353 -1.500000
v -2.000000 3.619550 -1.500000
v -2.000000 3.443309 -1.631600
v -2.000000 0.606428 -1.631600
v -2.000000 0.000000 -2.000000
v -2.000000 4.000000 -2.000000
vn 1.0000 -0.0000 -0.0000
vn 0.7071 -0.0000 0.7071
vn 0.4180 0.8065 0.4180
vn 0.8013 -0.5983 -0.0000
vn 0.5120 -0.6898 0.5120
vn 0.6831 0.7304 -0.0000
vn -0.0000 0.7304 0.6831
vn -0.0000 -0.0000 1.0000
vn -0.0000 -0.5983 0.8013
vn -0.0000 -1.0000 -0.0000
vn -0.0000 1.0000 -0.0000
vn -1.0000 -0.0000 -0.0000
vn -0.0000 -0.0000 -1.0000
vt 0.610637 0.901784
vt 0.623022 0.984969
vt 0.534948 0.994271
vt 0.534018 0.919353
vt 0.508400 0.101670
vt 0.507514 0.007645
vt 0.537720 0.008318
vt 0.532517 0.100842
vt 0.508363 0.145201
vt 0.533484 0.146083
vt 0.623022 0.016764
vt 0.612871 0.119284
vt 0.504884 0.993665
vt 0.509095 0.920000
vt 0.601448 0.857545
vt 0.533591 0.867767
vt 0.605637 0.157299
vt 0.508987 0.867064
vt 0.440395 0.157293
vt 0.432331 0.121829
vt 0.437356 0.857543
vt 0.429449 0.904247
vt 0.417496 0.015762
vt 0.420434 0.984135
vt 0.406438 0.104472
vt 0.406438 0.025560
vt 0.425633 0.006365
vt 0.504545 0.006365
vt 0.406438 0.889327
vt 0.504545 0.889327
vt 0.504545 0.987434
vt 0.576830 0.780097
vt 0.602652 0.814678
vt 0.602652 0.889327
vt 0.432260 0.223462
vt 0.406438 0.199313
vt 0.504545 0.104472
vt 0.602652 0.199313
vt 0.576831 0.223461
vt 0.602652 0.104472
vt 0.432260 0.780097
vt 0.406438 0.814678
vt 0.406438 0.968240
vt 0.425633 0.987434
s 0
usemtl Material.005
f 16/1/1 14/2/1 4/3/1 7/4/1
f 5/5/2 2/6/2 1/7/2 6/8/2
f 11/9/3 5/5/3 6/8/3 12/10/3
f 13/11/1 15/12/1 6/8/1 1/7/1
f 3/13/2 8/14/2 7/4/2 4/3/2
f 17/15/4 16/1/4 7/4/4 10/16/4
f 18/17/1 17/15/1 10/16/1 12/10/1
f 8/14/5 9/18/5 10/16/5 7/4/5
f 15/12/6 18/17/6 12/10/6 6/8/6
f 9/18/2 11/9/2 12/10/2 10/16/2
f 5/5/7 11/9/7 24/19/7 21/20/7
f 11/9/8 9/18/8 23/21/8 24/19/8
f 9/18/9 8/14/9 22/22/9 23/21/9
f 2/6/8 5/5/8 21/20/8 19/23/8
f 8/14/8 3/13/8 20/24/8 22/22/8
usemtl Material.006
f 13/25/10 1/26/10 2/27/10 19/28/10
f 14/29/11 26/30/11 20/31/11
f 23/32/12 22/33/12 20/34/12 26/30/12
f 18/35/13 15/36/13 13/25/13 25/37/13
f 21/38/12 24/39/12 25/37/12 19/40/12
f 17/41/13 18/35/13 25/37/13 26/30/13
f 24/39/12 23/32/12 26/30/12 25/37/12
f 16/42/13 17/41/13 26/30/13 14/29/13
f 4/43/11 14/29/11 20/31/11 3/44/11
f 25/37/10 13/25/10 19/28/10
